# xmcd CD database file
#
# Track frame offsets:
#	150
#	19261
#	36991
#	55068
#	68662
#	87150
#	105156
#	122821
#	140040
#	162829
#	177918
#	195094
#	212816
#	228215
#
# Disc length: 3257 seconds
#
# Revision: 1
# Processed by: cddbd v1.4PL0 Copyright (c) Steve Scherf et al.
# Submitted via: CDex 1.51
#
DISCID=b30cb70e
DTITLE=Milionário e José Rico - Decida
DYEAR=2003
DGENRE=Sertanejo
TTITLE0=Decida
TTITLE1=Moça
TTITLE2=Você Vai Ver
TTITLE3=Canarinho do Peito Amarelo
TTITLE4=Porque Chora a Tarde
TTITLE5=Fim de Noite
TTITLE6=Meu Grito
TTITLE7=Agenda Rabiscada
TTITLE8=Gita
TTITLE9=Coração de Luto
TTITLE10=Milagre da Flecha
TTITLE11=Meu Pranto
TTITLE12=Meu Primeiro Amor
TTITLE13=Ancestrais
EXTD=YEAR: 2003
EXTT0=
EXTT1=
EXTT2=
EXTT3=
EXTT4=
EXTT5=
EXTT6=
EXTT7=
EXTT8=
EXTT9=
EXTT10=
EXTT11=
EXTT12=
EXTT13=
PLAYORDER=
